<?xml version="1.0" standalone="no"?>
<!DOCTYPE svg PUBLIC "-//W3C//DTD SVG 20010904//EN"
 "http://www.w3.org/TR/2001/REC-SVG-20010904/DTD/svg10.dtd">
<svg version="1.0" xmlns="http://www.w3.org/2000/svg"
 width="318.000000pt" height="318.000000pt" viewBox="0 0 318.000000 318.000000"
 preserveAspectRatio="xMidYMid meet">
<metadata>
Created by potrace 1.14, written by Peter Selinger 2001-2017
</metadata>
<g transform="translate(0.000000,318.000000) scale(0.100000,-0.100000)"
fill="#000000" stroke="none">
<path d="M1374 3164 c-170 -24 -325 -71 -482 -147 -73 -36 -201 -112 -246
-147 -51 -40 -187 -163 -216 -194 -19 -22 -40 -44 -45 -50 -97 -104 -237 -345
-290 -500 -28 -84 -63 -211 -70 -261 -3 -16 -9 -57 -14 -89 -9 -63 -7 -354 4
-396 3 -14 7 -41 10 -60 14 -115 80 -314 151 -450 39 -76 145 -245 163 -260 3
-3 31 -34 61 -70 30 -35 72 -80 93 -99 22 -19 55 -50 75 -69 58 -52 218 -156
318 -206 225 -111 445 -161 709 -161 268 1 483 52 714 170 407 208 706 581
820 1025 20 76 27 115 41 225 8 63 6 357 -3 372 -3 4 -8 31 -11 58 -9 64 -49
214 -81 299 -119 316 -360 608 -655 791 -161 101 -407 191 -570 211 -30 3 -59
9 -64 12 -20 11 -324 9 -412 -4z"/>
</g>
</svg>
