<?xml version="1.0" encoding="utf-8"?>
<!-- Generator: Adobe Illustrator 23.0.2, SVG Export Plug-In . SVG Version: 6.00 Build 0)  -->
<svg version="1.1" id="Layer_1" xmlns="http://www.w3.org/2000/svg" xmlns:xlink="http://www.w3.org/1999/xlink" x="0px" y="0px"
	 width="150px" height="39.8px" viewBox="0 0 150 39.8" style="enable-background:new 0 0 150 39.8;" xml:space="preserve">
<style type="text/css">
	.st0{fill:#2A276E;}
	.st1{fill:#703E97;}
	.st2{fill:#F1CB14;}
</style>
<path class="st0" d="M144.8819,11.311h-0.656c-0.0448,0-0.0811-0.0363-0.0811-0.0811c0,0,0,0,0,0v-0.3527
	c-0.001-0.0448,0.0345-0.0819,0.0793-0.0829c0.0006,0,0.0012,0,0.0018,0h1.8709c0.0448,0,0.0811,0.0363,0.0811,0.0811
	c0,0.0006,0,0.0012,0,0.0018v0.3527c0,0.0448-0.0363,0.0811-0.0811,0.0811l0,0h-0.6542v2.4017
	c-0.0019,0.0447-0.0382,0.0802-0.0829,0.0811h-0.3968c-0.0444-0.0009-0.0802-0.0367-0.0811-0.0811V11.311z"/>
<path class="st0" d="M147.1531,10.819c0.0037-0.0393,0.0383-0.0683,0.0776-0.0652h0.0688c0.0302-0.0008,0.0582,0.0156,0.0723,0.0423
	l0.9417,2.0173h0.0141l0.9417-2.0208c0.013-0.0277,0.0418-0.0445,0.0723-0.0423h0.0688c0.0393-0.0031,0.0739,0.026,0.0776,0.0652
	l0.5078,2.8796c0.0139,0.0385-0.0061,0.0809-0.0446,0.0948c-0.0106,0.0038-0.0219,0.0052-0.033,0.004h-0.3897
	c-0.0376-0.0037-0.0694-0.0293-0.0811-0.0652l-0.2522-1.6223h-0.0123l-0.7494,1.6822c-0.0109,0.0301-0.0403,0.0495-0.0723,0.0476
	h-0.0776c-0.0318,0.0013-0.0609-0.0178-0.0723-0.0476l-0.7582-1.6822h-0.0124l-0.2486,1.6223
	c-0.0085,0.0365-0.0401,0.0631-0.0776,0.0652h-0.3844c-0.0425,0.0056-0.0815-0.0242-0.0871-0.0667
	c-0.0014-0.0107-0.0006-0.0216,0.0025-0.032L147.1531,10.819z"/>
<path class="st0" d="M137.3223,18.1405c-2.0843-0.8499-3.0365-1.6717-3.0365-2.8813c0-0.8235,0.797-1.8004,2.2642-1.8004
	c1.4107,0,3.3698,1.2855,3.5761,1.4107c0.3086,0.2063,0.6948,0,0.9011-0.3086l0.9769-1.4671
	c0.1772-0.2796,0.1105-0.6483-0.1534-0.8482c-0.5149-0.3862-2.5216-1.7246-5.1455-1.7246c-4.091,0-5.7891,2.645-5.7891,4.9374
	c0,3.0347,2.4176,4.5847,4.8369,5.5563c2.1601,0.8817,3.2675,1.7757,3.2675,3.0876c0,1.1056-1.0034,1.9803-2.3418,1.9803
	c-1.6717,0-3.756-1.5165-3.8794-1.587c-0.2606-0.2011-0.6349-0.1528-0.836,0.1078c-0.0168,0.0218-0.0321,0.0447-0.0457,0.0686
	l-0.9275,1.587c-0.231,0.4109-0.1023,0.5396,0.1287,0.7706c0.5149,0.4884,2.4193,2.0067,5.6604,2.0067
	c3.629,0,5.9178-2.444,5.9178-5.0943C142.6988,20.6356,139.8175,19.1438,137.3223,18.1405z"/>
<path class="st0" d="M126.2625,10.782h-2.8813v17.5208c0.0083,0.2663,0.2222,0.4802,0.4885,0.4884h2.8813V11.2704
	C126.7427,11.0041,126.5288,10.7902,126.2625,10.782z"/>
<path class="st0" d="M115.4972,21.5102c2.2377-0.8993,3.8071-2.8214,3.8071-5.1966c-0.0223-3.0754-2.5321-5.5512-5.6075-5.5317
	h-7.847v17.5208c-0.001,0.2688,0.2161,0.4875,0.4849,0.4884c0.0012,0,0.0024,0,0.0035,0h2.8549v-7.0534h2.8566l3.4209,6.8172
	c0.0818,0.1499,0.2421,0.2397,0.4126,0.231h3.5355L115.4972,21.5102z M113.4129,18.9851h-4.1933v-5.1137h4.1933
	c1.3631,0,2.5481,1.1321,2.5481,2.4952C115.9627,17.8054,114.776,18.9851,113.4129,18.9851z"/>
<path class="st0" d="M82.8115,10.8084c-0.0679-0.181-0.2462-0.2962-0.4391-0.2839h-0.2663
	c-0.1906-0.0055-0.3648,0.1075-0.4373,0.2839l-8.3072,17.9863h2.9801c0.3333,0.0079,0.6341-0.199,0.7459-0.5131l1.2608-2.7791
	h7.6935l1.2608,2.7791c0.1763,0.3527,0.3527,0.5131,0.7459,0.5131h2.9818L82.8115,10.8084z M79.6199,22.6423l2.5216-5.6604h0.0776
	l2.5727,5.6604L79.6199,22.6423z"/>
<path class="st0" d="M102.0481,10.782H90.3164v2.5992c0,0.2698,0.2187,0.4885,0.4884,0.4885l0,0h3.9358v14.4331
	c0.0092,0.2666,0.2236,0.4802,0.4902,0.4884h2.8813V13.8714h4.4243v-2.601c0.001-0.2688-0.2161-0.4875-0.4849-0.4885
	C102.0504,10.7819,102.0492,10.7819,102.0481,10.782z"/>
<path class="st0" d="M70.3305,10.782h-2.8813v17.5208c0.0083,0.2663,0.2222,0.4802,0.4884,0.4884h2.8831V11.2704
	C70.8124,11.0035,70.5974,10.7893,70.3305,10.782z"/>
<path class="st0" d="M60.8771,10.6973c-0.189-0.0015-0.3608,0.1094-0.4373,0.2821l-4.9374,11.0633H55.326l-4.9374-11.0633
	c-0.0766-0.1728-0.2484-0.2836-0.4373-0.2821h-3.368l8.2561,17.9863c0.0725,0.1764,0.2467,0.2894,0.4373,0.2839h0.2575
	c0.1903,0.0045,0.364-0.1082,0.4373-0.2839l8.2878-17.9863H60.8771z"/>
<path class="st1" d="M27.7841,28.1264C14.1004,38.7559,0.5384,20.4928,2.5963,10.2706c0.0029-0.0281-0.0176-0.0532-0.0457-0.0561
	c-0.0189-0.0019-0.0373,0.0068-0.0478,0.0226c-5.2015,9.3758-2.0443,21.1868,7.1416,26.7167
	c0.2597,0.1568,0.5406,0.2756,0.8341,0.3527c2.5974,0.6577,11.3225,1.744,17.3797-9.1078c0.02-0.0204,0.0196-0.0532-0.0009-0.0732
	C27.8368,28.1055,27.8041,28.1059,27.7841,28.1264z"/>
<path class="st2" d="M23.0742,8.9569c16.0466,6.5368,7.0129,27.4132-2.8619,30.7424c-0.0265,0.0065-0.0427,0.0332-0.0363,0.0597
	c0.0059,0.0243,0.0291,0.0403,0.0539,0.0373c10.7162-0.189,19.3599-8.8272,19.5557-19.5433
	c0.0036-0.3024-0.0374-0.6036-0.1217-0.894C38.9356,16.7809,35.5147,8.68,23.0883,8.8617
	c-0.0272,0.0021-0.0475,0.0259-0.0454,0.0531C23.0444,8.9336,23.0565,8.95,23.0742,8.9569z"/>
<path class="st0" d="M8.828,22.6176C6.458,5.4531,29.0608,2.8398,36.8848,9.7328c0.0175,0.0209,0.0487,0.0237,0.0697,0.0062
	c0.0209-0.0175,0.0237-0.0487,0.0062-0.0697c-5.5184-9.193-17.3255-12.365-26.7079-7.1751
	C9.9894,2.6429,9.7489,2.8287,9.5386,3.0461c-1.8692,1.9203-7.1734,8.9332-0.8041,19.605c0.0156,0.0235,0.0474,0.0299,0.0709,0.0143
	C8.8212,22.6549,8.8299,22.6365,8.828,22.6176z"/>
<path class="st0" d="M28.2338,16.0068c-0.0159-0.0353-0.0353-0.0688-0.0511-0.104c-0.1146-0.2363-0.2363-0.4673-0.3703-0.6912
	L27.74,15.0934c-2.6537-4.3338-8.3182-5.6957-12.6519-3.042c-1.2401,0.7594-2.2826,1.8019-3.042,3.042l-0.0723,0.1181
	c-0.134,0.2239-0.2557,0.4549-0.3703,0.6912c-0.0159,0.0353-0.0353,0.0688-0.0511,0.104c-1.1304,2.4253-1.1504,5.2223-0.0547,7.6636
	c0.0176,0.0406,0.0353,0.0829,0.0547,0.1252c0.1093,0.2328,0.231,0.462,0.3527,0.6842c0.0212,0.037,0.0406,0.0741,0.0635,0.1111
	c2.5901,4.3732,8.235,5.8187,12.6082,3.2286c1.3303-0.7879,2.4407-1.8983,3.2286-3.2286c0.0229-0.037,0.0423-0.0741,0.0635-0.1111
	c0.1287-0.2222,0.2486-0.4514,0.3527-0.6842c0.0194-0.0423,0.037-0.0846,0.0547-0.1252c1.0957-2.4412,1.0757-5.2382-0.0547-7.6636
	L28.2338,16.0068z M27.3415,16.0068c0.5463,1.0465,0.8654,2.1967,0.9363,3.3751H24.67c-0.0286-1.1372-0.1758-2.2684-0.4391-3.3751
	l-0.0264-0.104h3.0771L27.3415,16.0068z M23.8606,20.297c-0.02,1.1359-0.1595,2.2666-0.4162,3.3733h-3.1529v-3.3715l0,0V20.193
	h3.5708C23.8624,20.2195,23.8624,20.2618,23.8606,20.297L23.8606,20.297z M16.3434,23.6704
	c-0.2567-1.1067-0.3961-2.2374-0.4162-3.3733c0-0.0353,0-0.0705,0-0.1058h3.5708v0.1058l0,0v3.3715L16.3434,23.6704z
	 M16.3716,16.0068c0.0088-0.0353,0.0194-0.0688,0.0282-0.104h3.0965v3.4791h-3.5655
	C15.9583,18.2444,16.1061,17.1131,16.3716,16.0068L16.3716,16.0068z M23.3881,15.9028c0.0106,0.0353,0.0194,0.0688,0.0282,0.104
	c0.2655,1.1063,0.4133,2.2377,0.4408,3.3751h-3.5655v-3.4791L23.3881,15.9028z M26.7825,15.0934h-2.8108
	c-0.4214-1.3208-1.0104-2.4229-1.7122-3.1917c-0.0127-0.0135-0.0121-0.0347,0.0014-0.0474
	c0.0091-0.0085,0.0221-0.0113,0.0339-0.0073C24.1139,12.3923,25.6953,13.5363,26.7825,15.0934L26.7825,15.0934z M20.3445,11.5349
	c1.1621,0.2786,2.1725,1.6223,2.809,3.5585h-2.8619V11.579c-0.0017-0.0233,0.0158-0.0436,0.0391-0.0453
	C20.3353,11.5333,20.34,11.5337,20.3445,11.5349L20.3445,11.5349z M19.4963,11.5772v3.5161h-2.8619
	c0.6366-1.9397,1.647-3.2799,2.809-3.5585c0.0226-0.0059,0.0457,0.0076,0.0516,0.0303c0.0012,0.0045,0.0016,0.0092,0.0013,0.0138
	L19.4963,11.5772z M17.5284,11.9017c-0.7053,0.7688-1.2908,1.8709-1.7122,3.1917h-2.8108c1.0876-1.5567,2.6689-2.7005,4.4878-3.2463
	c0.0175-0.006,0.0366,0.0033,0.0426,0.0208C17.5397,11.8796,17.5369,11.8926,17.5284,11.9017L17.5284,11.9017z M12.4535,16.0068
	l0.06-0.104h3.0771l-0.0264,0.104c-0.2633,1.1067-0.4105,2.2378-0.4391,3.3751h-3.6149
	C11.5832,18.2029,11.9047,17.0528,12.4535,16.0068z M11.5083,20.297c0-0.0353,0-0.0705,0-0.1058h3.6131v0.1058
	c0.0215,1.1358,0.161,2.2663,0.4162,3.3733h-3.1511c-0.5292-1.0496-0.8309-2.1991-0.8852-3.3733H11.5083z M12.8573,24.4815h2.8937
	l0.0317,0.1111c0.425,1.3737,1.0298,2.5181,1.7528,3.3098c0.0127,0.0135,0.0121,0.0347-0.0014,0.0474
	c-0.0091,0.0085-0.0221,0.0113-0.0339,0.0073c-1.9129-0.5709-3.5608-1.8027-4.65-3.4756H12.8573z M19.5034,24.5908v3.6343
	c0.0007,0.0234-0.0176,0.0429-0.041,0.0436c-0.004,0.0001-0.0081-0.0003-0.0119-0.0013c-1.2079-0.2892-2.2518-1.7281-2.8831-3.7859
	h2.936L19.5034,24.5908z M20.3516,28.2674c-0.0226,0.0059-0.0457-0.0077-0.0516-0.0304c-0.001-0.0039-0.0015-0.0079-0.0013-0.012
	v-3.7454h2.9289c-0.6313,2.0596-1.6752,3.4985-2.8831,3.7877L20.3516,28.2674z M26.9448,24.4815
	c-1.0878,1.6709-2.7329,2.9018-4.6429,3.4738c-0.0175,0.006-0.0366-0.0033-0.0426-0.0208c-0.004-0.0118-0.0012-0.0248,0.0073-0.0339
	c0.723-0.7917,1.3278-1.9397,1.7528-3.3098l0.0317-0.1111h2.8937V24.4815z M28.2937,20.297
	c-0.0532,1.174-0.3537,2.3235-0.8817,3.3733H24.268c0.2552-1.107,0.3946-2.2375,0.4162-3.3733v-0.1058h3.6043
	c-0.0018,0.0282,0,0.0705-0.0018,0.1058L28.2937,20.297z"/>
</svg>
